<?xml version="1.0" standalone="no"?><!DOCTYPE svg PUBLIC "-//W3C//DTD SVG 1.1//EN" "http://www.w3.org/Graphics/SVG/1.1/DTD/svg11.dtd"><svg t="1587104221049" class="icon" viewBox="0 0 1024 1024" version="1.1" xmlns="http://www.w3.org/2000/svg" p-id="924" xmlns:xlink="http://www.w3.org/1999/xlink" width="200" height="200"><defs><style type="text/css"></style></defs><path d="M862 912H632c-16.6 0-30-13.4-30-30V692c0-49.6-40.4-90-90-90s-90 40.4-90 90v190c0 16.6-13.4 30-30 30H162c-16.6 0-30-13.4-30-30V402c0-9.5 4.5-18.4 12.1-24.1l350-260c10.6-7.9 25.2-7.9 35.8 0l350 260c7.6 5.7 12.1 14.6 12.1 24.1v480c0 16.6-13.4 30-30 30z m-200-60h170V417.1L512 179.4 192 417.1V852h170V692c0-82.7 67.3-150 150-150s150 67.3 150 150v160z" p-id="925"></path></svg>